<svg width="79" height="19" viewBox="0 0 79 19" fill="none" xmlns="http://www.w3.org/2000/svg">
<g clip-path="url(#clip0_1_7968)">
<path d="M11.5512 0.0382143C11.6699 0.0382143 11.8006 0.0651471 11.9193 0.118015L7.83646 9.5086H12.6046L10.7083 5.14847L12.5916 0.842209L20.4809 18.952H16.7403L16.7133 18.9121L14.1198 12.946H6.36213L3.74067 18.965H0L0.038903 18.8603L7.95516 0.670637C8.11277 0.28859 8.48185 0.0382143 8.89083 0.0382143H11.5512ZM52.3285 7.76993C52.4472 7.76993 52.539 7.86171 52.539 7.98041C52.539 8.03328 52.5131 8.07318 52.4861 8.11208L50.0362 11.2203H44.0442V15.5276H54.3435V18.965H42.3055C41.3569 18.965 40.5928 18.2009 40.5928 17.2533V7.76993H52.3285ZM24.3922 2.10606C28.476 -1.1598 34.4291 -0.488472 37.682 3.59435L37.7219 3.64721L35.298 6.28165L35.2451 6.20284C34.1528 4.55595 32.2955 3.55445 30.3064 3.55445C28.3174 3.56841 26.46 4.55595 25.3538 6.20284C23.5363 8.94201 24.2874 12.6298 27.0136 14.4473C29.7398 16.2648 33.4276 15.5276 35.2451 12.7745L35.298 12.6957L35.3109 12.7086L37.7219 15.343L37.682 15.3959C37.2481 15.9356 36.7464 16.4493 36.1937 16.8842C32.1109 20.1511 26.1707 19.4787 22.9039 15.3959C19.638 11.3131 20.3094 5.35994 24.3922 2.10606ZM69.7142 0.0511819C69.9775 0.0511819 70.2149 0.143951 70.3994 0.32849L78.4992 8.42829C78.8284 8.75747 79.013 9.19239 78.999 9.65324C78.999 10.1011 78.8284 10.5231 78.5252 10.8522L77.2743 12.0902L70.5571 18.8074C70.4782 18.8862 70.3596 18.8862 70.2797 18.8074C70.2538 18.7675 70.2279 18.7276 70.2279 18.6757L69.767 14.7505L74.8643 9.65324L69.0418 3.83175C69.0289 3.81879 69.0159 3.81879 69.0159 3.80582L67.2114 2.00032V1.01278C67.2114 0.486097 67.6463 0.0511819 68.173 0.0511819H69.7142ZM70.6628 6.67666V9.56147C70.6359 10.4702 69.8987 11.2074 68.99 11.2343H57.729C57.6103 11.2343 57.5176 11.1415 57.5176 11.0238C57.5176 10.971 57.5305 10.9311 57.5704 10.8912L60.0203 7.7829H67.2244V3.23923L70.6628 6.67666ZM54.3305 3.48961H44.0312V6.91407H40.5928V1.76391C40.5928 0.815277 41.3569 0.0511819 42.3055 0.0511819H54.3305V3.48961ZM74.0743 0.0511819C74.587 0.0511819 74.996 0.47313 74.996 0.986849C74.996 1.50057 74.574 1.92152 74.0603 1.92152C73.5466 1.92152 73.1256 1.50057 73.1256 0.986849C73.1256 0.47313 73.5466 0.0511819 74.0603 0.0511819H74.0743ZM74.0334 0.169886C73.5865 0.169886 73.2174 0.551933 73.2304 0.999816C73.2304 1.4477 73.6124 1.81678 74.0603 1.80381H74.0863C74.5212 1.78985 74.8773 1.43473 74.8643 0.986849V0.973881C74.8643 0.525998 74.4813 0.156918 74.0334 0.169886ZM74.1132 0.499065C74.3366 0.499065 74.4553 0.591834 74.4553 0.776374V0.789341C74.4553 0.93398 74.3506 1.03972 74.206 1.03972L74.192 1.05268L74.4823 1.50057H74.3237L74.0473 1.06565H73.8758V1.50057H73.7311V0.499065H74.1132ZM73.8758 0.933981H74.0473C74.192 0.933981 74.3237 0.89408 74.3237 0.749441C74.3237 0.604801 74.192 0.591834 74.0863 0.591834H73.8758V0.933981Z" fill="black"/>
</g>
<defs>
<clipPath id="clip0_1_7968">
<rect width="79" height="19" fill="white"/>
</clipPath>
</defs>
</svg>
