<svg width="66" height="19" viewBox="0 0 66 19" fill="none" xmlns="http://www.w3.org/2000/svg">
<g clip-path="url(#clip0_1_7974)">
<path d="M10.9052 4.75049L8.7906 9.319L11.7034 9.30713L13.3957 13.0419H7.15864L4.63256 19H0.414185L8.72928 0L10.9052 4.75049ZM19.342 13.9963V14.0082L21.5664 19H17.4202L10.9052 4.75049L8.73027 0H13.1168L19.342 13.9963ZM30.9813 3.62592H23.5L23.5119 9.29428H28.7579L27.3554 13.0053H23.5356L23.5485 19H21.5664L19.342 13.9963L19.3539 0H32.3472L30.9813 3.62592ZM46.5374 14.2139L46.5305 14.2258L47.931 17.368L46.5374 14.2139L52.7616 0H57.1372L65.5859 19H61.4516L54.9257 4.75049L52.8101 9.319L55.7357 9.30713L57.4152 13.0419H51.1781L48.652 19H44.4346L44.4703 18.9159L37.9919 4.75049L35.8762 9.319L38.8019 9.30713L40.4823 13.0419H34.2453L31.7192 19H27.5008L35.8159 0H40.2034L46.5374 14.2139ZM60.9442 0C61.6217 0 62.1766 0.555856 62.1775 1.23238C62.1775 1.90989 61.6217 2.46575 60.9442 2.46575C60.2677 2.46575 59.7118 1.90989 59.7118 1.23238C59.7118 0.555856 60.2677 0 60.9442 0ZM60.9442 0.313535C60.4368 0.313535 60.0135 0.724987 60.0135 1.24524C60.0135 1.75263 60.4249 2.17595 60.9442 2.17595C61.4644 2.17595 61.8749 1.75263 61.8749 1.24524C61.8749 0.724987 61.4644 0.314524 60.9442 0.313535ZM61.0896 0.61619C61.3072 0.61619 61.5129 0.78532 61.5129 1.06325C61.5129 1.28084 61.3922 1.37777 61.2834 1.44997L61.416 1.77637L61.3556 1.8733H61.1252L61.0658 1.82483L60.9442 1.46283H60.8116V1.81296L60.7513 1.8733H60.5456L60.4852 1.81296V0.676523H60.4734L60.5337 0.61619H61.0896ZM60.7869 1.1849H61.0292V1.17205L61.138 1.06325L61.0292 0.954451H60.7869V1.1849Z" fill="black"/>
</g>
<defs>
<clipPath id="clip0_1_7974">
<rect width="66" height="19" fill="white"/>
</clipPath>
</defs>
</svg>
