<svg width="29" height="29" viewBox="0 0 29 29" fill="none" xmlns="http://www.w3.org/2000/svg">
<path d="M14.5001 6.42725H7.36484C6.7933 6.42725 6.22659 6.53962 5.69976 6.75954C5.17172 6.97825 4.69201 7.29966 4.28843 7.70325C3.88484 8.10804 3.56584 8.58895 3.34834 9.117C3.13084 9.64504 3.01968 10.2117 3.02088 10.7833V18.229C3.02088 19.3806 3.47884 20.4862 4.29326 21.3006C5.10768 22.115 6.21209 22.573 7.36484 22.573H14.5001C15.6516 22.573 16.7572 22.115 17.5716 21.3006C18.3861 20.4862 18.844 19.3806 18.844 18.229V10.7833C18.8452 10.2117 18.7341 9.64504 18.5166 9.117C18.2991 8.58895 17.9788 8.10804 17.5753 7.70325C17.1729 7.29966 16.6932 6.97825 16.1651 6.75954C15.6371 6.53962 15.0716 6.42725 14.5001 6.42725Z" stroke="white" stroke-width="1.8125" stroke-linecap="round" stroke-linejoin="round"/>
<path d="M25.9792 11.4042V17.609C25.9792 17.9123 25.8934 18.2084 25.7315 18.4645C25.5672 18.7219 25.3352 18.9285 25.0609 19.0602C24.789 19.1968 24.4821 19.2487 24.18 19.2101C23.8815 19.175 23.5988 19.059 23.3607 18.8742L19.4639 15.747C19.2754 15.5923 19.1231 15.3978 19.018 15.1767C18.9117 14.9604 18.8561 14.7223 18.8561 14.4819C18.8561 14.2402 18.9117 14.0022 19.018 13.7871C19.1292 13.5841 19.2814 13.4065 19.4639 13.2651L23.3607 10.1633C23.5988 9.97842 23.8815 9.86242 24.18 9.82737C24.4821 9.78871 24.789 9.84067 25.0609 9.97721C25.3352 10.1089 25.5672 10.3155 25.7315 10.5717C25.8886 10.8218 25.9756 11.1094 25.9792 11.4042Z" stroke="white" stroke-width="1.8125" stroke-linecap="round" stroke-linejoin="round"/>
</svg>
