<svg width="32" height="32" viewBox="0 0 32 32" fill="none" xmlns="http://www.w3.org/2000/svg">
<path d="M25.7986 7.00678L21.4813 11.1548L17.22 5.34812C17.1053 5.12412 16.9293 4.93612 16.7146 4.80412C16.5 4.67212 16.252 4.60278 16 4.60278C15.748 4.60278 15.5 4.67212 15.2853 4.80412C15.0706 4.93612 14.8946 5.12412 14.78 5.34812L10.5186 11.1548L6.20129 7.00678C6.04663 6.75612 5.81596 6.56278 5.54396 6.45345C5.27063 6.34545 4.96929 6.32678 4.68529 6.40278C4.40129 6.47745 4.14929 6.64278 3.96529 6.87212C3.78129 7.10145 3.67729 7.38412 3.66663 7.67745L5.79063 22.6148C5.96129 23.9441 6.61329 25.1655 7.62396 26.0468C8.63329 26.9281 9.93196 27.4081 11.272 27.3975H20.8653C22.2053 27.4081 23.5026 26.9281 24.5133 26.0468C25.5226 25.1655 26.176 23.9441 26.3466 22.6148L28.3333 7.67745C28.3226 7.38412 28.2186 7.10145 28.0346 6.87212C27.852 6.64278 27.5986 6.47745 27.3146 6.40278C27.0306 6.32678 26.7293 6.34545 26.4573 6.45345C26.184 6.56278 25.9533 6.75612 25.7986 7.00678Z" stroke="black" stroke-width="2" stroke-linecap="round" stroke-linejoin="round"/>
<path d="M10.6666 21.9294H21.3333" stroke="black" stroke-width="2" stroke-linecap="round" stroke-linejoin="round"/>
</svg>
