<svg width="32" height="32" viewBox="0 0 32 32" fill="none" xmlns="http://www.w3.org/2000/svg">
<path d="M26.892 17.7921C26.892 11.9681 21.6213 12.1521 21.6213 3.66675C13.0173 5.78808 12.3053 9.82008 12.3053 17.3174C10.356 17.5147 8.57733 14.2867 7.45733 12.5214C2.292 19.2814 5.80933 28.3334 16.3507 28.3334C19.1467 28.3334 21.828 27.2227 23.8053 25.2454C25.7813 23.2694 26.892 20.5881 26.892 17.7921Z" stroke="black" stroke-width="2" stroke-linecap="round" stroke-linejoin="round"/>
<path d="M22.5826 17.3174C22.564 18.2934 22.3346 19.2534 21.912 20.132C21.4893 21.012 20.8826 21.7907 20.1333 22.4147C19.384 23.04 18.508 23.496 17.568 23.7534C16.6266 24.0107 15.64 24.0627 14.6773 23.9054" stroke="black" stroke-width="2" stroke-linecap="round" stroke-linejoin="round"/>
</svg>
