<svg width="24" height="24" viewBox="0 0 24 24" fill="none" xmlns="http://www.w3.org/2000/svg">
<path d="M17.928 19.6339H20.065C20.254 19.6369 20.44 19.5949 20.608 19.5109C20.776 19.4259 20.922 19.3019 21.031 19.1489C21.141 18.9959 21.212 18.8189 21.238 18.6319C21.265 18.4459 21.245 18.2559 21.182 18.0789C20.637 16.9119 19.774 15.9219 18.692 15.2229C17.61 14.5249 16.353 14.1449 15.065 14.1279" stroke="white" stroke-width="1.5" stroke-linecap="round" stroke-linejoin="round"/>
<path d="M15.065 11.37C15.546 11.37 16.023 11.276 16.467 11.092C16.912 10.907 17.316 10.637 17.656 10.297C17.996 9.95698 18.266 9.55298 18.451 9.10798C18.635 8.66398 18.73 8.18698 18.73 7.70598C18.731 7.22398 18.637 6.74598 18.453 6.30098C18.27 5.85498 18 5.44998 17.66 5.10898C17.319 4.76698 16.915 4.49698 16.47 4.31198C16.024 4.12698 15.547 4.03198 15.065 4.03198" stroke="white" stroke-width="1.5" stroke-linecap="round" stroke-linejoin="round"/>
<path d="M14.0251 20.8279C14.3771 20.8269 14.7221 20.7289 15.0221 20.5439C15.3211 20.3589 15.5641 20.0949 15.7231 19.7809C15.8821 19.4669 15.9511 19.1149 15.9231 18.7639C15.8941 18.4129 15.7691 18.0769 15.5611 17.7929C14.8331 16.8249 13.8951 16.0349 12.8171 15.4809C11.7401 14.9269 10.5511 14.6249 9.34008 14.5959C8.12808 14.6249 6.93908 14.9269 5.86208 15.4809C4.78408 16.0349 3.84608 16.8249 3.11808 17.7929C2.91008 18.0769 2.78508 18.4129 2.75608 18.7639C2.72808 19.1149 2.79708 19.4669 2.95608 19.7809C3.11508 20.0949 3.35808 20.3589 3.65708 20.5439C3.95708 20.7289 4.30208 20.8269 4.65408 20.8279H14.0251Z" stroke="white" stroke-width="1.5" stroke-linecap="round" stroke-linejoin="round"/>
<path d="M9.33899 11.4851C10.441 11.4821 11.497 11.0431 12.275 10.2631C13.053 9.4831 13.49 8.4261 13.49 7.3241C13.49 6.2231 13.053 5.1671 12.274 4.3891C11.496 3.6101 10.44 3.1731 9.33899 3.1731C8.23799 3.1731 7.18199 3.6101 6.40399 4.3891C5.62499 5.1671 5.18799 6.2231 5.18799 7.3241C5.18799 8.4261 5.62499 9.4831 6.40299 10.2631C7.18099 11.0431 8.23699 11.4821 9.33899 11.4851Z" stroke="white" stroke-width="1.5" stroke-linecap="round" stroke-linejoin="round"/>
</svg>
