<svg width="90" height="19" viewBox="0 0 90 19" fill="none" xmlns="http://www.w3.org/2000/svg">
<g clip-path="url(#clip0_1_7980)">
<path d="M11.5374 0.00637767C13.1067 0.00436452 14.4011 0.0144303 14.4132 0.0275158C14.4243 0.0446276 14.1676 0.640521 13.8415 1.35418C13.5143 2.07087 12.8963 3.42169 12.4655 4.3568C12.0357 5.29191 11.3894 6.6991 11.0281 7.48323C10.6677 8.26836 10.1987 9.28802 9.98727 9.75004C9.77489 10.211 9.25952 11.3334 8.84078 12.2423C8.42305 13.1523 7.649 14.8343 7.12155 15.9807C6.59411 17.1272 6.06767 18.2747 5.73852 18.9944H2.87279C0.8687 18.9954 0.00505727 18.9803 2.43862e-05 18.9461C-0.00299534 18.9179 0.27482 18.2918 0.618062 17.553C0.962311 16.8132 1.41225 15.8408 1.6186 15.3919C1.82394 14.943 2.17524 14.179 2.39769 13.6928C2.62115 13.2066 3.5633 11.1572 4.49237 9.13804C5.42144 7.11885 6.37769 5.03926 6.61826 4.51483C6.85884 3.99141 7.42151 2.76339 7.86944 1.786L8.68275 0.00839082L11.5374 0.00637767ZM79.5638 0.0285223L81.6907 4.67488C82.8604 7.22957 83.8156 9.33029 83.8156 9.34237C83.8096 9.35546 83.3365 9.41283 82.7607 9.47122C82.1819 9.5296 81.3304 9.61616 80.8694 9.66347C80.6842 9.6826 80.4949 9.70071 80.3258 9.71783C80.501 9.70071 80.6982 9.68159 80.8915 9.66146C81.3646 9.61314 82.2011 9.52859 82.7497 9.47524C83.2972 9.42189 83.7864 9.3615 83.8368 9.34036C83.8861 9.31922 84.0904 9.29003 84.2897 9.27393C84.489 9.25883 85.0386 9.20749 85.5127 9.15817C85.9858 9.11086 86.7911 9.02933 87.3024 8.97799C87.8127 8.92766 88.5365 8.85418 88.9099 8.81593C89.2843 8.77668 89.6195 8.73943 89.6578 8.73239C89.695 8.72433 89.7816 8.71528 89.85 8.71226C89.9245 8.70924 89.9839 8.73541 89.997 8.77567C90.0131 8.82197 89.9537 8.8723 89.8047 8.93773C89.687 8.99007 89.2743 9.1622 88.8867 9.31922C88.5012 9.47625 87.8792 9.72991 87.5057 9.88391C87.1323 10.0369 86.4086 10.3328 85.8972 10.5412C85.3869 10.7506 84.6632 11.0455 84.2897 11.1985C83.9163 11.3515 83.1815 11.6515 82.6591 11.8659C82.1356 12.0793 81.5438 12.3198 81.3445 12.4014C81.1452 12.4839 80.5744 12.7184 80.0762 12.9228L79.889 12.9993C79.4179 13.1915 78.8542 13.423 78.5593 13.5428C78.2231 13.6807 77.4994 13.9767 76.9508 14.2001C76.4032 14.4246 75.6785 14.7205 75.3423 14.8584C75.0061 14.9963 74.4353 15.2298 74.074 15.3778C73.7136 15.5248 73 15.8167 72.4886 16.025C71.9773 16.2334 71.3049 16.5082 70.9939 16.637C70.6818 16.7649 70.1976 16.9652 69.9178 17.0829C69.5705 17.2279 69.3914 17.2812 69.3582 17.25C69.3239 17.2178 69.3642 17.1111 69.4971 16.8877C69.5997 16.7125 70.0557 15.9858 70.5087 15.2721C70.9626 14.5585 71.8434 13.1664 72.4665 12.1799C73.0875 11.1945 73.6271 10.3791 73.6663 10.3651C73.7046 10.352 74.0498 10.3107 74.4363 10.2714C74.8229 10.2322 75.5164 10.1617 75.9774 10.1144C76.4374 10.0661 76.9981 10.0117 77.2225 9.99363C77.446 9.97551 77.6604 9.96544 77.6976 9.97048C77.7027 9.97148 77.7138 9.96947 77.7299 9.96947C77.6815 9.94531 77.6242 9.85573 77.5537 9.69367C77.4863 9.53765 77.1642 8.82902 76.838 8.11838C76.5119 7.40773 76.0579 6.41424 75.8284 5.90894C75.5989 5.40565 75.4006 4.99296 75.3886 4.99195C75.3755 4.99296 75.1389 5.35532 74.8611 5.79721C74.5833 6.2391 73.2264 8.38512 71.8444 10.5654C70.4624 12.7466 68.6979 15.5308 66.5166 18.9733L63.3197 18.9844C61.216 18.9914 60.1279 18.9803 60.1218 18.9501C60.1218 18.926 60.4047 18.4609 60.7499 17.9194C61.0962 17.3769 63.0449 14.3028 65.0812 11.0868C67.1185 7.87176 69.5313 4.06288 70.4412 2.62348L72.0991 0.00537109L79.5638 0.0285223ZM30.9371 0.00738425C35.7516 0.00637767 39.6984 0.0214763 39.7074 0.0406013C39.7125 0.0637525 38.8277 1.08845 35.7727 4.54201L28.4338 4.541C21.9937 4.54 21.0596 4.54805 20.8009 4.60945C20.6389 4.64669 20.4245 4.72621 20.3248 4.78359C20.2262 4.84096 20.0571 4.98792 19.9494 5.10972C19.8427 5.23152 19.7128 5.4429 19.6615 5.5808C19.5991 5.74789 19.5749 5.90391 19.587 6.05691C19.5971 6.18676 19.6434 6.34076 19.6967 6.41928C19.7491 6.49376 19.8698 6.59543 19.9675 6.64576C20.1406 6.73433 20.2574 6.73735 32.6473 6.78366L33.0771 6.90847C33.3147 6.97792 33.6911 7.12287 33.9156 7.23158C34.1401 7.34029 34.4863 7.54966 34.6856 7.69763C34.8849 7.8466 35.1909 8.11838 35.3661 8.30359C35.5412 8.48779 35.7919 8.81291 35.9227 9.0253C36.0536 9.23668 36.2187 9.56281 36.2901 9.75004C36.3626 9.93726 36.4532 10.2483 36.4934 10.4416C36.5367 10.6519 36.5649 11.0193 36.5649 11.3585C36.5649 11.6917 36.5367 12.0611 36.4965 12.2544C36.4592 12.4346 36.3747 12.7456 36.3092 12.9459C36.2438 13.1452 36.0928 13.5116 35.972 13.7612C35.8523 14.0109 35.664 14.3672 35.5533 14.5544C35.4436 14.7406 35.202 15.098 35.0158 15.3466C34.8306 15.5962 34.5347 15.9536 34.3605 16.1398C34.1854 16.327 33.8512 16.636 33.6166 16.8273C33.3821 17.0185 33.0067 17.2893 32.7822 17.4302C32.5587 17.5701 32.1611 17.7896 31.8994 17.9174C31.6387 18.0442 31.1234 18.2465 30.756 18.3673C30.3886 18.4881 29.838 18.6381 29.533 18.6995C29.228 18.7619 28.7227 18.8465 28.4106 18.8897C27.8963 18.9602 27.0296 18.9683 18.9096 18.9813C12.9949 18.9904 9.99533 18.9803 9.97419 18.9501C9.97419 18.926 10.7543 18.0221 11.7065 16.944C12.6597 15.865 13.5415 14.8665 13.8928 14.4628L28.9773 14.4407L29.3397 14.2665C29.6054 14.1387 29.7826 14.0109 30.002 13.7904C30.1822 13.6082 30.3594 13.3717 30.45 13.1945C30.5315 13.0325 30.6261 12.7979 30.6593 12.6731C30.6936 12.5493 30.7207 12.3752 30.7217 12.2876C30.7227 12.2 30.6996 12.0581 30.6704 11.9715C30.6422 11.884 30.5657 11.7421 30.5003 11.6565C30.4349 11.5709 30.2899 11.4582 30.1782 11.4069C29.9769 11.3143 29.9044 11.3132 23.6999 11.2881C18.05 11.2639 17.3876 11.2539 17.0404 11.1844C16.829 11.1421 16.5028 11.0656 16.3156 11.0143C16.1294 10.964 15.8133 10.8512 15.614 10.7637C15.4147 10.6771 15.1188 10.517 14.9567 10.4103C14.7957 10.3016 14.5128 10.053 14.3296 9.85673C14.0991 9.61012 13.9421 9.38968 13.8203 9.13804C13.7237 8.93874 13.613 8.65387 13.5737 8.50389C13.5355 8.35392 13.4922 8.02778 13.4781 7.77815C13.461 7.4631 13.4751 7.1883 13.5274 6.87223C13.5687 6.62361 13.6744 6.20487 13.7619 5.94316C13.8505 5.68146 14.0347 5.24259 14.1726 4.9688C14.3105 4.69501 14.536 4.29741 14.6739 4.08502C14.8118 3.87364 15.0181 3.57771 15.1329 3.42773C15.2476 3.27775 15.4842 3.00497 15.6593 2.82177C15.8335 2.63757 16.1294 2.35975 16.3156 2.20474C16.5028 2.04872 16.8501 1.79406 17.0867 1.63904C17.3232 1.48303 17.7409 1.24749 18.0147 1.11562C18.2885 0.982757 18.7274 0.800566 18.9891 0.709974C19.2508 0.619383 19.6685 0.493561 19.9172 0.431153C20.1668 0.367739 20.5946 0.27614 20.8684 0.228831C21.1422 0.181522 21.5196 0.130187 21.7068 0.114081C21.8941 0.0979761 22.0773 0.0677788 22.1145 0.0476473C22.1558 0.0265092 26.1247 0.00839082 30.9371 0.00738425ZM56.1831 0.00637767C61.0157 0.00637767 64.9695 0.0214763 64.9695 0.0406013C64.9645 0.0647591 64.0807 1.08442 61.0589 4.51584L53.6022 4.53798C46.7273 4.55912 46.1284 4.56617 45.92 4.63764C45.7952 4.67991 45.5939 4.78258 45.4701 4.86512C45.3473 4.94665 45.1802 5.11576 45.0987 5.24057C45.0171 5.36539 44.9185 5.58986 44.8802 5.73883C44.8239 5.9633 44.8209 6.04584 44.8672 6.21091C44.9014 6.33271 44.9809 6.46055 45.0705 6.53906C45.151 6.61053 45.2939 6.68803 45.3876 6.7132C45.4963 6.74239 47.7238 6.75849 51.5599 6.75849C56.6974 6.75748 57.6144 6.76755 57.9245 6.82593C58.1238 6.86217 58.4398 6.94571 58.626 7.00913C58.8133 7.07355 59.1464 7.22152 59.3679 7.33929C59.5893 7.45605 59.9346 7.68454 60.1349 7.8466C60.3372 8.00866 60.6291 8.29352 60.7852 8.48074C60.9412 8.66797 61.1576 8.97397 61.2633 9.16119C61.37 9.34741 61.522 9.69467 61.6025 9.93122C61.682 10.1688 61.7726 10.5452 61.8018 10.7697C61.833 11.0052 61.8431 11.3696 61.827 11.6313C61.8129 11.88 61.7484 12.2876 61.685 12.5372C61.6216 12.7869 61.4817 13.1945 61.374 13.4442C61.2673 13.6928 61.0519 14.1216 60.8949 14.3954C60.7368 14.6702 60.4409 15.1181 60.2346 15.3929C60.0292 15.6667 59.6286 16.1156 59.3447 16.3894C59.0599 16.6642 58.6351 17.0246 58.3996 17.1927C58.163 17.3598 57.7151 17.6285 57.4031 17.7886C57.092 17.9486 56.633 18.1549 56.3844 18.2476C56.1348 18.3402 55.7482 18.464 55.5238 18.5223C55.2993 18.5817 54.9118 18.6723 54.6621 18.7237C54.4135 18.775 53.9545 18.8505 53.6435 18.8918C53.1392 18.9582 52.1135 18.9683 44.1756 18.9813C39.2807 18.9894 35.2614 18.9803 35.2443 18.9612C35.2302 18.9411 36.0999 17.9244 39.1337 14.486L54.2092 14.4407L54.482 14.33C54.6309 14.2686 54.8755 14.1246 55.0255 14.0099C55.1745 13.8941 55.399 13.6586 55.5248 13.4854C55.6597 13.3002 55.7956 13.0415 55.857 12.8543C55.9375 12.6127 55.9586 12.4618 55.9465 12.2172C55.9355 11.9665 55.9063 11.8608 55.8177 11.731C55.7563 11.6394 55.6033 11.5085 55.252 11.3132L48.978 11.2881C42.8178 11.2619 42.695 11.2589 42.2058 11.1643C41.931 11.1119 41.5344 11.0093 41.322 10.9378C41.1106 10.8663 40.7744 10.7224 40.5751 10.6197C40.3758 10.517 40.0799 10.3238 39.9178 10.1909C39.7558 10.058 39.5232 9.81748 39.4014 9.65743C39.2797 9.49638 39.1216 9.24272 39.0512 9.09274C38.9807 8.94377 38.881 8.6579 38.8317 8.4586C38.7633 8.19387 38.7391 7.95128 38.7391 7.56375C38.7401 7.2648 38.7703 6.88733 38.8086 6.70212C38.8468 6.52195 38.9324 6.19984 38.9998 5.98846C39.0673 5.77607 39.2807 5.28688 39.4749 4.90136C39.6682 4.51483 39.9591 4.01456 40.1201 3.7901C40.2822 3.56664 40.5389 3.24051 40.6899 3.06536C40.8419 2.89123 41.1428 2.58825 41.3592 2.39297C41.5757 2.1987 41.9662 1.89572 42.2279 1.71957C42.4896 1.54342 42.9023 1.30083 43.1449 1.17904C43.3885 1.05724 43.7448 0.894178 43.9381 0.817678C44.1313 0.740172 44.5239 0.609317 44.8098 0.526778C45.0967 0.444238 45.616 0.323449 45.9653 0.258022C46.3136 0.193601 46.7625 0.127167 46.9628 0.112068C47.1621 0.095963 47.3413 0.0657657 47.3615 0.0446276C47.3806 0.0234895 51.3505 0.00637767 56.1831 0.00637767ZM85.0899 12.1467C85.1081 12.1628 85.2641 12.4809 85.4352 12.8543C85.6073 13.2288 85.9023 13.871 86.0905 14.2826C86.2787 14.6943 86.8323 15.9022 87.3205 16.9672C87.8087 18.0332 88.2083 18.926 88.2083 18.9501C88.2013 18.9803 87.1021 18.9914 81.8045 18.9733L81.2881 17.8399C81.0033 17.2168 80.5271 16.177 80.2292 15.5288C79.8155 14.6289 79.7007 14.342 79.746 14.3118C79.7782 14.2907 80.9861 13.7894 82.4306 13.1966C83.875 12.6047 85.0708 12.1316 85.0899 12.1467Z" fill="black"/>
</g>
<defs>
<clipPath id="clip0_1_7980">
<rect width="90" height="19" fill="white"/>
</clipPath>
</defs>
</svg>
