<svg width="32" height="32" viewBox="0 0 32 32" fill="none" xmlns="http://www.w3.org/2000/svg">
<path d="M12.2879 3.66687H21.9505C22.0665 3.66687 22.1812 3.69487 22.2839 3.75087C22.3865 3.80554 22.4745 3.88554 22.5385 3.98287C22.6025 4.0802 22.6412 4.1922 22.6505 4.3082C22.6599 4.4242 22.6412 4.5402 22.5945 4.64687L18.8132 13.4695H25.1852C25.2385 13.4695 25.2905 13.4855 25.3359 13.5149C25.3799 13.5442 25.4159 13.5855 25.4372 13.6335C25.4599 13.6815 25.4679 13.7362 25.4599 13.7882C25.4519 13.8415 25.4305 13.8909 25.3959 13.9322L12.3999 28.2149C12.3652 28.2682 12.3119 28.3069 12.2505 28.3242C12.1892 28.3402 12.1225 28.3349 12.0652 28.3082C12.0079 28.2815 11.9612 28.2335 11.9359 28.1762C11.9092 28.1175 11.9052 28.0522 11.9239 27.9909L13.2119 17.6709H7.24653C7.13053 17.6722 7.01587 17.6455 6.9132 17.5922C6.81053 17.5389 6.72253 17.4602 6.6572 17.3642C6.59187 17.2682 6.55187 17.1589 6.53987 17.0429C6.52787 16.9282 6.54387 16.8109 6.58787 16.7042L11.6292 4.10154C11.6825 3.97087 11.7745 3.8602 11.8919 3.78287C12.0092 3.70554 12.1479 3.6642 12.2879 3.66687Z" stroke="black" stroke-width="2" stroke-linecap="round" stroke-linejoin="round"/>
</svg>
