<svg width="85" height="25" viewBox="0 0 85 25" fill="none" xmlns="http://www.w3.org/2000/svg">
<g clip-path="url(#clip0_1_7962)">
<path d="M59.2867 14.6704H51.7787C51.3113 14.6704 50.9292 15.0505 50.9292 15.5159C50.9292 15.9251 51.2411 16.2771 51.6373 16.3473L51.7366 16.3754H55.7884C57.006 16.3754 58.0972 16.8969 58.8624 17.7284C59.5424 18.4615 59.9667 19.4484 59.9667 20.5336C59.9667 20.9277 59.9105 21.3229 59.7972 21.689L59.74 21.8865L59.6979 21.9989C59.6698 22.0972 59.6126 22.2105 59.5705 22.3088L59.5284 22.4071L59.4291 22.5906L59.4 22.6327C59.3298 22.7461 59.2586 22.8584 59.1733 22.9717L59.1172 23.0419C59.046 23.1543 58.9467 23.2535 58.8484 23.3799L58.8203 23.408C58.6638 23.5775 58.4793 23.733 58.2958 23.8734L58.2807 23.8874C57.5877 24.4089 56.7232 24.7188 55.7884 24.7188H48.2804V21.4633L55.6039 21.4493H55.7323C56.2277 21.4493 56.6379 21.0401 56.6379 20.5476C56.6379 20.0542 56.2548 19.659 55.7734 19.645H51.7225C51.1127 19.6309 50.532 19.4905 50.0085 19.2508C49.7527 19.1234 49.512 18.983 49.2854 18.8135L49.2573 18.7855C49.0447 18.63 48.8601 18.4615 48.6906 18.2639L48.6335 18.2078L48.4921 18.0383L48.4078 17.9259L48.2935 17.7705C48.2373 17.6862 48.1801 17.602 48.138 17.5177L48.0668 17.3904L47.9826 17.1928L47.9254 17.0664L47.8411 16.8267L47.8121 16.7274C47.784 16.6151 47.7559 16.5028 47.7268 16.3904L47.7138 16.2912C47.6987 16.2069 47.6847 16.1076 47.6706 16.0234L47.6566 15.911C47.6566 15.7977 47.6426 15.6713 47.6426 15.544C47.6426 15.4036 47.6426 15.2762 47.6566 15.1498V15.1067C47.6706 14.9803 47.6847 14.868 47.7138 14.7546L47.7268 14.6844C47.7559 14.5862 47.784 14.4728 47.8121 14.3745L47.8411 14.2762C47.8692 14.177 47.8973 14.0787 47.9394 13.9944L47.9966 13.8811L48.1099 13.6554L48.1942 13.501L48.2804 13.3736L48.4359 13.1489L48.4921 13.0637C48.5633 12.9654 48.6475 12.8802 48.7187 12.7959L48.7478 12.7538C48.8461 12.6545 48.9454 12.5562 49.0447 12.472C49.7678 11.8381 50.7025 11.4429 51.7366 11.4289H59.2867V14.6704ZM43.7883 11.4289C44.0721 11.4289 44.3409 11.4851 44.5966 11.5844H44.6107L44.6247 11.5984L44.71 11.6405L44.8795 11.7248L44.9366 11.7669L45.1061 11.8802L45.1633 11.9224L45.2626 11.9926L45.3047 12.0206C45.418 12.1059 45.5033 12.2042 45.5875 12.3175L45.6166 12.3456C45.73 12.5141 45.8293 12.6976 45.8995 12.8812V12.8942C45.9566 13.0356 45.9847 13.1911 46.0128 13.3455V13.3596L46.0268 13.515V24.7048H42.7693V20.674H37.0034V24.7048H33.7449V13.515H33.7589L33.7729 13.3455V13.3315C33.801 13.1058 33.8722 12.9092 33.9575 12.7117C34.3115 11.9645 35.0768 11.4429 35.9553 11.4289H43.7883ZM68.6792 11.4149C69.8416 11.4149 70.8756 11.8802 71.6409 12.6264L71.7111 12.5702C72.4623 11.8521 73.4823 11.4149 74.6015 11.4149H81.7836V24.6908H78.4969V14.6704H75.1251C74.092 14.6704 73.2556 15.5018 73.2556 16.5309V24.6767H69.983V16.5309C69.983 15.5018 69.1466 14.6704 68.1125 14.6704H64.7557V24.6908L61.4681 24.7048V11.4149H68.6792ZM18.8412 11.4149C20.7969 11.4149 21.3205 12.2884 23.1618 14.4728C23.1618 14.4728 28.0632 20.3781 28.347 20.688V11.4149H31.6056V24.6908H29.2818L29.2687 24.6767C27.6821 24.6055 26.9871 24.1692 24.8488 21.5756C24.8488 21.5756 20.7418 16.6592 20.4569 16.3473V24.6908H17.1843L17.1703 11.4149H18.8412ZM15.8946 14.9663C10.3413 17.7284 5.01469 20.9137 0 24.4791L8.88202 13.9232C11.1627 12.7257 13.5146 11.6124 15.8946 10.5694V14.9663ZM36.9894 17.4746H42.7542V14.6985H36.9894V17.4746ZM83.7814 11.7388H83.5116V12.6134H83.2288V11.7388H82.959V11.4851H83.7814V11.7388ZM84.4755 11.9785L84.7162 11.4851H85V12.6134H84.7162V12.0778L84.5607 12.3456H84.3762L84.2207 12.0778V12.6134H83.9509V11.4851H84.2207L84.4755 11.9785ZM59.7831 1.46472C67.2059 1.46472 74.4451 2.19786 81.4436 3.60699C77.0377 3.10051 72.5606 2.84677 68.0132 2.84677C53.606 2.84677 39.8217 5.43936 27.0863 10.1612H27.0723C25.5849 10.7108 24.1116 11.3025 22.6524 11.9083C21.6183 10.795 20.6545 10.1461 18.8412 10.1461H16.8865C30.0621 4.5658 44.5545 1.46472 59.7831 1.46472ZM51.2411 0.28125C53.8758 0.28125 56.4965 0.379538 59.0891 0.549034H58.8624C41.7353 0.549034 25.4997 4.42439 11.0363 11.3587L15.696 5.82048C26.9018 2.22595 38.8448 0.28125 51.2411 0.28125Z" fill="black"/>
</g>
<defs>
<clipPath id="clip0_1_7962">
<rect width="85" height="25" fill="white"/>
</clipPath>
</defs>
</svg>
