<svg width="68" height="22" viewBox="0 0 68 22" fill="none" xmlns="http://www.w3.org/2000/svg">
<path d="M18.5962 5.05502C22.9679 5.05506 24.8312 6.79392 24.8312 11.0663V17.8478H21.1053V16.4319C20.3105 17.5 19.0432 18.2198 17.5776 18.2198C14.299 18.2198 12.3614 16.6801 12.3612 14.0474C12.3612 11.4144 14.4727 10.0478 17.5776 10.0478C18.6954 10.0478 20.1614 10.2218 21.1053 11.1409C21.0804 9.0295 20.5831 8.15979 18.6208 8.15979C16.9321 8.15983 16.5843 8.75599 16.4599 9.35206H13.0324C13.2808 6.86821 14.5723 5.05502 18.5962 5.05502ZM31.8919 5.05502C35.5434 5.05502 37.6054 7.26599 37.8041 10.0232H34.4756C34.2769 8.88059 33.4072 8.15981 31.9665 8.15979C30.0788 8.15979 29.2592 9.57574 29.2592 11.5628C29.2592 13.7239 30.4517 15.1151 32.0911 15.1151C33.5315 15.1149 34.1528 14.4938 34.5502 13.3017H37.8286C37.3815 17.0523 34.7487 18.2197 31.9419 18.2198C27.8684 18.2198 25.4589 15.935 25.4587 11.5883C25.4587 7.66364 27.8928 5.05502 31.8919 5.05502ZM57.3976 5.05502C61.1234 5.05502 63.6568 7.56369 63.7563 11.3392V12.6314H55.0131C55.2367 14.1713 56.0813 15.115 57.7951 15.1151C58.9625 15.1151 59.8814 14.7673 60.1795 13.8482H63.608C63.2603 16.8538 60.9 18.2198 57.8696 18.2198C53.5477 18.2198 51.1136 15.6121 51.1135 11.5883C51.1135 7.66368 53.6717 5.05507 57.3976 5.05502ZM10.6233 1.54556C11.8268 2.35491 12.6276 3.69258 12.6277 5.79984C12.6277 8.33349 11.6588 10.3207 9.54747 11.3392L12.8269 17.8478H8.62895L5.72244 12.0849H3.73535V17.8478H0.00944519V8.39533L3.73535 8.43352H6.0953C7.80916 8.43348 8.8272 7.48917 8.8272 6.1727C8.82714 5.36027 8.43942 4.76572 7.73953 4.42934L10.6233 1.54556ZM41.9474 7.31585C42.6181 6.02419 43.7858 5.05504 45.6488 5.05502C48.0582 5.05502 50.4922 6.37149 50.4924 10.1469V17.8478H46.7665V11.1654C46.7664 8.73129 45.4994 8.11068 44.3319 8.11068C42.7425 8.11087 41.9474 9.3027 41.9474 10.8426V17.8478H38.2215V0.459713H41.9474V7.31585ZM67.9905 17.8478H64.2646V0.459713H67.9905V17.8478ZM18.6208 12.4823C17.3043 12.4824 16.1617 13.029 16.1617 14.0474C16.162 15.1152 17.4041 15.587 18.348 15.587C19.4905 15.5869 21.1053 14.9909 21.1053 13.5999C21.1053 12.5815 19.1175 12.4823 18.6208 12.4823ZM57.5968 8.15979C56.0816 8.15979 55.3109 9.02929 55.0376 10.3706H60.2541C60.0305 8.95493 59.1365 8.1599 57.5968 8.15979Z" fill="white"/>
</svg>
