<svg width="16" height="16" viewBox="0 0 16 16" fill="none" xmlns="http://www.w3.org/2000/svg">
<path d="M8.00004 12.6668C6.46671 12.6668 3.73337 12.5335 2.60004 12.2668C2.13337 12.1335 1.80004 11.8002 1.66671 11.3335C1.46671 10.6002 1.33337 9.06683 1.33337 8.00016C1.33337 6.9335 1.46671 5.40016 1.66671 4.66683C1.80004 4.20016 2.13337 3.86683 2.60004 3.7335C3.73337 3.46683 6.46671 3.3335 8.00004 3.3335C9.53337 3.3335 12.2667 3.46683 13.4 3.7335C13.8667 3.86683 14.2 4.20016 14.3334 4.66683C14.5334 5.40016 14.6667 6.9335 14.6667 8.00016C14.6667 9.06683 14.5334 10.6002 14.3334 11.3335C14.2 11.8002 13.8667 12.1335 13.4 12.2668C12.2667 12.5335 9.53337 12.6668 8.00004 12.6668Z" stroke="white" stroke-linecap="round" stroke-linejoin="round"/>
<path d="M6.66663 10L9.99996 8L6.66663 6V10Z" stroke="white" stroke-linecap="round" stroke-linejoin="round"/>
</svg>
